<?xml version="1.0" encoding="utf-8"?>
<!-- Generator: Adobe Illustrator 14.0.0, SVG Export Plug-In . SVG Version: 6.00 Build 43363)  -->
<!DOCTYPE svg PUBLIC "-//W3C//DTD SVG 1.1//EN" "https://www.w3.org/Graphics/SVG/1.1/DTD/svg11.dtd">
<svg version="1.1" id="Layer_1" xmlns="https://www.w3.org/2000/svg" xmlns:xlink="https://www.w3.org/1999/xlink" x="0px" y="0px"
	 width="398.168px" height="398px" viewBox="0 0 398.168 398" enable-background="new 0 0 398.168 398" xml:space="preserve">
<g>
	<path fill="#8A4545" d="M1.168,0c36.667,0,73.333,0,110,0c0,37,0,74,0,111c-37,0-74,0-111,0C0.834,74.333-1.165,35.001,1.168,0z
		 M16.168,15c-2.333,24.667-0.334,53.666-1,80c26.667,0,53.333,0,80,0c0-26.667,0-53.333,0-80C68.834,15,42.501,15,16.168,15z"/>
	<path fill="#8A4545" d="M159.168,0c5.333,0,10.667,0,16,0c0,10.333,0,20.667,0,31c-5.333,0-10.667,0-16,0
		C159.168,20.667,159.168,10.333,159.168,0z"/>
	<path fill="#8A4545" d="M287.168,0c37,0,74,0,111,0c0,37,0,74,0,111c-37.334,0-74.666,0-112,0
		C286.834,74.333,284.835,35.001,287.168,0z M303.168,15c-2.332,24.667-0.334,53.666-1,80c26.667,0,53.333,0,80,0
		c0-26.667,0-53.333,0-80C355.835,15,329.501,15,303.168,15z"/>
	<path fill="#8A4545" d="M127.168,15c5.333,0,10.667,0,16,0c0,5.333,0,10.667,0,16c-5.333,0-10.667,0-16,0
		C127.168,25.667,127.168,20.333,127.168,15z"/>
	<path fill="#8A4545" d="M79.168,31c0,16,0,32,0,48c-16,0-32,0-48,0c0-16,0-32,0-48C47.168,31,63.168,31,79.168,31z"/>
	<path fill="#8A4545" d="M366.168,31c0,16,0,32,0,48c-16,0-32,0-48,0c0-16,0-32,0-48C334.168,31,350.168,31,366.168,31z"/>
	<path fill="#8A4545" d="M159.168,95c-5.333,0-10.667,0-16,0c0,5.333,0,10.667,0,16c-5.333,0-10.667,0-16,0c0-10.667,0-21.333,0-32
		c5,0,10,0,15,0c2.311-3.356,0.35-10.983,1-16c-5.333,0-10.667,0-16,0c0-5.333,0-10.667,0-16c16,0,32,0,48,0c0,5.333,0,10.667,0,16
		c-5,0-10,0-15,0C157.841,71.673,159.83,84.662,159.168,95z"/>
	<path fill="#8A4545" d="M238.168,127c5.333,0,10.667,0,16,0c0,5.333,0,10.667,0,16c-5.333,0-10.667,0-16,0
		C238.168,137.667,238.168,132.333,238.168,127z"/>
	<path fill="#8A4545" d="M302.168,206c-5.333,0-10.667,0-16,0c0,5.333,0,10.667,0,16c-5.333,0-10.667,0-16,0c0-10.333,0-20.667,0-31
		c-5.333,0-10.667,0-16,0c0-5.333,0-10.667,0-16c5,0,10,0,15,0c2.311-3.356,0.352-10.983,1-16c10.667,0,21.333,0,32,0
		c0-10.667,0-21.333,0-32c5.333,0,10.667,0,16,0c0,16,0,32,0,48c-5.333,0-10.667,0-16,0
		C302.168,185.333,302.168,195.667,302.168,206z"/>
	<path fill="#8A4545" d="M334.168,127c5.333,0,10.667,0,16,0c0,5.333,0,10.667,0,16c-5.333,0-10.667,0-16,0
		C334.168,137.667,334.168,132.333,334.168,127z"/>
	<path fill="#8A4545" d="M334.168,159c5.333,0,10.667,0,16,0c0,5.333,0,10.667,0,16c-5.333,0-10.667,0-16,0
		C334.168,169.667,334.168,164.333,334.168,159z"/>
	<path fill="#8A4545" d="M1.168,286c36.667,0,73.333,0,110,0c0,37.334,0,74.666,0,112c-37,0-74,0-111,0
		C0.834,361-1.165,321.334,1.168,286z M16.168,302c-2.333,24.668-0.334,53.666-1,80c26.667,0,53.333,0,80,0c0-26.667,0-53.333,0-80
		C68.834,302,42.501,302,16.168,302z"/>
	<path fill="#8A4545" d="M286.168,286c5.333,0,10.667,0,16,0c0,5.333,0,10.667,0,16c-5.333,0-10.667,0-16,0
		C286.168,296.667,286.168,291.333,286.168,286z"/>
	<path fill="#8A4545" d="M79.168,318c0,16,0,32,0,48c-16,0-32,0-48,0c0-16,0-32,0-48C47.168,318,63.168,318,79.168,318z"/>
	<path fill="#8A4545" d="M191.168,15c0-5,0-10,0-15c10.333,0,20.667,0,31,0c0,5,0,10,0,15c10.333,0,20.667,0,31,0
		c2.309-3.025,0.354-10.314,1-15c5.333,0,10.667,0,16,0c0,15.667,0,31.333,0,47c-5.333,0-10.667,0-16,0c0-5,0-10,0-15
		c-3.355-2.311-10.982-0.35-16-1c0,5.333,0,10.667,0,16c-5,0-10,0-15,0c-2.327,8.673-0.338,21.662-1,32c10.333,0,20.667,0,31,0
		c2.311-3.356,0.352-10.983,1-16c5.333,0,10.667,0,16,0c0,16,0,32,0,48c-5.333,0-10.667,0-16,0c0-5,0-10,0-15
		c-3.355-2.311-10.982-0.35-16-1c0,10.667,0,21.333,0,32c-5.333,0-10.667,0-16,0c0-10.333,0-20.667,0-31
		c-3.355-2.311-10.982-0.35-16-1c0,5.333,0,10.667,0,16c-5,0-10,0-15,0c0,10.667,0,21.333,0,32c-5,0-10,0-15,0
		c-2.327,8.673-0.338,21.662-1,32c-5.333,0-10.667,0-16,0c0-10.667,0-21.333,0-32c5,0,10,0,15,0c2.311-3.356,0.35-10.983,1-16
		c-5.333,0-10.667,0-16,0c0,5.333,0,10.667,0,16c-5,0-10,0-15,0c-2.311,3.356-0.35,10.983-1,16c-10.667,0-21.333,0-32,0
		c0,5.333,0,10.667,0,16c-5,0-10,0-15,0c-2.311,3.356-0.35,10.983-1,16c-5,0-10,0-15,0c-2.308,3.025-0.353,10.314-1,15
		c5.333,0,10.667,0,16,0c0-5,0-10,0-15c5,0,10,0,15,0c2.311-3.356,0.35-10.983,1-16c5.333,0,10.667,0,16,0c0,5.333,0,10.667,0,16
		c-5,0-10,0-15,0c-2.308,3.025-0.353,10.314-1,15c-5,0-10,0-15,0c-2.308,3.025-0.353,10.314-1,15c3.356,2.311,10.983,0.352,16,1
		c0-5.333,0-10.667,0-16c10.333,0,20.667,0,31,0c2.308-3.025,0.353-10.314,1-15c10.667,0,21.333,0,32,0c0,5,0,10,0,15
		c-5,0-10,0-15,0c-2.311,3.355-0.35,10.982-1,16c-5,0-10,0-15,0c-2.333,24.668-0.334,53.666-1,80c-5.333,0-10.667,0-16,0
		c0-26.333,0-52.667,0-79c-3.356-2.311-10.983-0.352-16-1c0,5.333,0,10.667,0,16c-5,0-10,0-15,0c-2.311,3.355-0.35,10.982-1,16
		c5.333,0,10.667,0,16,0c0,5.333,0,10.667,0,16c-10.667,0-21.333,0-32,0c0-5,0-10,0-15c-3.356-2.311-10.983-0.352-16-1
		c0,5.333,0,10.667,0,16c-5.333,0-10.667,0-16,0c0-5.333,0-10.667,0-16c5,0,10,0,15,0c2.311-3.355,0.35-10.982,1-16c5,0,10,0,15,0
		c2.308-3.025,0.353-10.314,1-15c-3.356-2.311-10.983-0.352-16-1c0,5.333,0,10.667,0,16c-5.333,0-10.667,0-16,0
		c0,5.333,0,10.667,0,16c-5.333,0-10.667,0-16,0c0-10.667,0-21.333,0-32c10.333,0,20.667,0,31,0c2.311-3.355,0.35-10.982,1-16
		c-10.667,0-21.333,0-32,0c0,5.333,0,10.667,0,16c-5,0-10,0-15,0c-2.331,14.003-0.335,32.331-1,48c-5,0-10,0-15,0
		c0-26.333,0-52.667,0-79c5,0,10,0,15,0c0,4.667,0,9.333,0,14c3.356,2.311,10.983,0.352,16,1c0-10.333,0-20.667,0-31
		c10.333,0,20.667,0,31,0c2.311-3.356,0.35-10.983,1-16c-10.667,0-21.333,0-32,0c0,5.333,0,10.667,0,16c-5.333,0-10.667,0-16,0
		c0-10.333,0-20.667,0-31c-3.025-2.308-10.314-0.353-15-1c0-5.333,0-10.667,0-16c26.333,0,52.667,0,79,0c0,5,0,10,0,15
		c3.356,2.311,10.983,0.35,16,1c0-5.333,0-10.667,0-16c16,0,32,0,48,0c0-5.333,0-10.667,0-16c5.333,0,10.667,0,16,0
		c0-5.333,0-10.667,0-16c5,0,10,0,15,0c2.311-3.356,0.35-10.983,1-16c10,0,20,0,30,0c2.311-3.356,0.352-10.983,1-16c-5,0-10,0-15,0
		c0-10.667,0-21.333,0-32c5,0,10,0,15,0c0,5,0,10,0,15c3.355,2.311,10.982,0.35,16,1c0-10.333,0-20.667,0-31
		C213.828,13.673,201.173,15.662,191.168,15z M175.168,111c5.333,0,10.667,0,16,0c0-5.333,0-10.667,0-16c-5.333,0-10.667,0-16,0
		C175.168,100.333,175.168,105.667,175.168,111z M94.168,159c-5,0-10,0-15,0c0,5.333,0,10.667,0,16c-5.333,0-10.667,0-16,0
		c0,5.333,0,10.667,0,16c5.333,0,10.667,0,16,0c0.65-5.017-1.311-12.644,1-16c5,0,10,0,15,0c0-5.333,0-10.667,0-16
		c5.333,0,10.667,0,16,0c0-5.333,0-10.667,0-16c-5.333,0-10.667,0-16,0C94.518,148.017,96.479,155.644,94.168,159z"/>
	<path fill="#8A4545" d="M286.168,222c5.333,0,10.667,0,16,0c0-5.333,0-10.667,0-16c5,0,10,0,15,0c2.308-3.025,0.354-10.314,1-15
		c5.333,0,10.667,0,16,0c0,5,0,10,0,15c-5,0-10,0-15,0c-2.311,3.355-0.351,10.982-1,16c-5.333,0-10.667,0-16,0
		c0,5.333,0,10.667,0,16c-5,0-10,0-15,0c-2.311,3.355-0.352,10.982-1,16c15.667,0,31.333,0,47,0c2.33-14.003,0.335-32.331,1-48
		c5,0,10,0,15,0c2.308-3.025,0.354-10.314,1-15c10.333,0,20.667,0,31,0c2.311-3.356,0.351-10.983,1-16c-5.333,0-10.667,0-16,0
		c0-16,0-32,0-48c5.333,0,10.667,0,16,0c0,10.333,0,20.667,0,31c3.356,2.311,10.983,0.35,16,1c0,15.667,0,31.333,0,47
		c-5,0-10,0-15,0c-2.311,3.355-0.351,10.982-1,16c5.333,0,10.667,0,16,0c0,10.667,0,21.333,0,32c-5.333,0-10.667,0-16,0
		c0-5,0-10,0-15c-3.355-2.311-10.983-0.352-16-1c0-10.333,0-20.667,0-31c-3.355-2.311-10.983-0.352-16-1c0,16,0,32,0,48
		c-5,0-10,0-15,0c-2.308,3.025-0.353,10.314-1,15c3.356,2.311,10.983,0.352,16,1c0-5.333,0-10.667,0-16c5.333,0,10.667,0,16,0
		c0,10.333,0,20.667,0,31c8.673,2.327,21.662,0.338,32,1c0,5.333,0,10.667,0,16c-5,0-10,0-15,0c-2.311,3.355-0.351,10.982-1,16
		c-5.333,0-10.667,0-16,0c0-5,0-10,0-15c-3.355-2.311-10.983-0.352-16-1c0,5.333,0,10.667,0,16c5.333,0,10.667,0,16,0c0,5,0,10,0,15
		c3.356,2.311,10.983,0.352,16,1c0-5.333,0-10.667,0-16c5.333,0,10.667,0,16,0c0,26.667,0,53.333,0,80c-32,0-64,0-96,0
		c0-5,0-10,0-15c-3.355-2.311-10.982-0.352-16-1c0,5.333,0,10.667,0,16c-5.333,0-10.667,0-16,0c0-5.333,0-10.667,0-16c5,0,10,0,15,0
		c2.311-3.355,0.352-10.982,1-16c5,0,10,0,15,0c2.309-3.025,0.354-10.314,1-15c-3.355-2.311-10.982-0.352-16-1
		c0,5.333,0,10.667,0,16c-5.333,0-10.667,0-16,0c0,5.333,0,10.667,0,16c-16,0-32,0-48,0c0-5.333,0-10.667,0-16
		c15.667,0,31.333,0,47,0c2.327-8.34,0.338-20.995,1-31c-14.003-2.33-32.331-0.335-48-1c0-5.333,0-10.667,0-16
		c10.667,0,21.333,0,32,0c0-10.333,0-20.667,0-31c-3.355-2.311-10.982-0.352-16-1c0,5.333,0,10.667,0,16c-5.333,0-10.667,0-16,0
		c0,5.333,0,10.667,0,16c-5.333,0-10.667,0-16,0c0,5.333,0,10.667,0,16c-5,0-10,0-15,0c0-10.667,0-21.333,0-32c4.667,0,9.333,0,14,0
		c2.311-3.355,0.352-10.982,1-16c-5,0-10,0-15,0c0-5.333,0-10.667,0-16c-5.333,0-10.667,0-16,0c0-16,0-32,0-48
		c10.333,0,20.667,0,31,0c0,5.333,0,10.667,0,16c-5,0-10,0-15,0c0,10.333,0,20.667,0,31c18.668,2.332,41.665,0.335,62,1
		c2.311-3.355,0.352-10.982,1-16c-10.667,0-21.333,0-32,0c0-5.333,0-10.667,0-16c5.333,0,10.667,0,16,0c0-5.333,0-10.667,0-16
		c5.333,0,10.667,0,16,0c0,5.333,0,10.667,0,16c10.333,0,20.667,0,31,0C287.479,234.645,285.52,227.018,286.168,222z M270.168,270
		c0,16,0,32,0,48c16,0,32,0,48,0c0-16,0-32,0-48C302.168,270,286.168,270,270.168,270z M350.168,367c0,5,0,10,0,15
		c10.667,0,21.333,0,32,0c0-10.667,0-21.333,0-32c-5.333,0-10.667,0-16,0c0,5.333,0,10.667,0,16c-5.017-0.648-12.644,1.311-16-1
		c0-10.333,0-20.667,0-31c-5.333,0-10.667,0-16,0c-0.649,5.018,1.311,12.645-1,16c-5,0-10,0-15,0c0,5.333,0,10.667,0,16
		C328.506,366.662,341.495,364.673,350.168,367z"/>
	<path fill="#8A4545" d="M270.168,127c5.333,0,10.667,0,16,0c0,5.333,0,10.667,0,16c-5.333,0-10.667,0-16,0c0,5.333,0,10.667,0,16
		c-5,0-10,0-15,0c-2.311,3.356-0.352,10.983-1,16c-10.333,0-20.667,0-31,0c-2.311,3.356-0.352,10.983-1,16c5.333,0,10.667,0,16,0
		c0,5,0,10,0,15c-5.333,0-10.667,0-16,0c0-4.667,0-9.333,0-14c-3.355-2.311-10.982-0.35-16-1c0,5,0,10,0,15c-5,0-10,0-15,0
		c0-10.333,0-20.667,0-31c4.667,0,9.333,0,14,0c2.311-3.356,0.352-10.983,1-16c-5,0-10,0-15,0c0-5.333,0-10.667,0-16
		c10.333,0,20.667,0,31,0c0,5,0,10,0,15c8.673,2.327,21.662,0.338,32,1c0-5.333,0-10.667,0-16c5,0,10,0,15,0
		C271.479,139.644,269.52,132.017,270.168,127z"/>
	<path fill="#8A4545" d="M159.168,302c5.333,0,10.667,0,16,0c0,5.333,0,10.667,0,16c-5,0-10,0-15,0c-2.311,3.355-0.35,10.982-1,16
		c-5,0-10,0-15,0c-2.308,3.025-0.353,10.314-1,15c3.356,2.311,10.983,0.352,16,1c0-5.333,0-10.667,0-16c5.333,0,10.667,0,16,0
		c0,5.333,0,10.667,0,16c10.333,0,20.667,0,31,0c0,5.333,0,10.667,0,16c-5,0-10,0-15,0c0,10.667,0,21.333,0,32
		c-21.333,0-42.667,0-64,0c0-26.667,0-53.333,0-80c10.667,0,21.333,0,32,0C159.168,312.667,159.168,307.333,159.168,302z"/>
</g>
</svg>
